# xmcd
#
# Track frame offsets:
#	150
#	4705
#	14642
#	26562
#	38652
#	48742
#	58682
#	70622
#	83042
#	93242
#	103272
#	113840
#	124432
#	135122
#	146230
#	156935
#	166427
#	176807
#	189855
#	202437
#	211612
#	223647
#
# Disc length: 3055 seconds
#
# Revision: 0
# Processed by: cddbd v1.5.2PL0 Copyright (c) Steve Scherf et al.
# Submitted via: audiograbber 1.83.01
#
DISCID=3d0bed16
DTITLE=Tom Astor and His Friends - Country Party
DYEAR=1900
DGENRE=Country
TTITLE0=Orange Blossom Special
TTITLE1=Deep in the heart of Texas
TTITLE2=Jackson
TTITLE3=Oh, lonesome me
TTITLE4=Bonanza
TTITLE5=Von den blauen Bergen kommen wir
TTITLE6=Blue Bayou
TTITLE7=On top of old Smokey
TTITLE8=Some broken hearts never mend
TTITLE9=San Antonio Rose
TTITLE10=7000 Rinder
TTITLE11=Auf meiner Ranch bin ich König
TTITLE12=Geisterreiter
TTITLE13=Ring of fire
TTITLE14=El Paso
TTITLE15=Adios Amigo
TTITLE16=Tennessee Waltz
TTITLE17=Green, green grass of home
TTITLE18=Tom Dooley
TTITLE19=The yellow rose of Texas
TTITLE20=Take me home Country Roads
TTITLE21=Orange Blossom Special
EXTD=
EXTT0=
EXTT1=
EXTT2=
EXTT3=
EXTT4=
EXTT5=
EXTT6=
EXTT7=
EXTT8=
EXTT9=
EXTT10=
EXTT11=
EXTT12=
EXTT13=
EXTT14=
EXTT15=
EXTT16=
EXTT17=
EXTT18=
EXTT19=
EXTT20=
EXTT21=
PLAYORDER=
